<mxfile host="app.diagrams.net" agent="Mozilla/5.0 (Windows NT 10.0; Win64; x64) AppleWebKit/537.36 (KHTML, like Gecko) Chrome/127.0.0.0 Safari/537.36" version="24.7.7">
  <diagram name="Page-1" id="1bXDtNYpMlQd7kHSsz0P">
    <mxGraphModel dx="1313" dy="653" grid="1" gridSize="10" guides="1" tooltips="1" connect="1" arrows="1" fold="1" page="1" pageScale="1" pageWidth="827" pageHeight="1169" math="0" shadow="0">
      <root>
        <mxCell id="0" />
        <mxCell id="1" parent="0" />
        <mxCell id="HK2u9pn1FgQDqxlHmX3k-11" value="" style="edgeStyle=orthogonalEdgeStyle;rounded=0;orthogonalLoop=1;jettySize=auto;html=1;" edge="1" parent="1" source="HK2u9pn1FgQDqxlHmX3k-1" target="HK2u9pn1FgQDqxlHmX3k-9">
          <mxGeometry relative="1" as="geometry" />
        </mxCell>
        <mxCell id="HK2u9pn1FgQDqxlHmX3k-1" value="&lt;div&gt;&lt;br&gt;&lt;/div&gt;&lt;div&gt;&lt;b style=&quot;font-size: 12px; text-wrap: nowrap;&quot;&gt;UPRAVLJANJE STOLOVIMA&lt;/b&gt;&lt;br&gt;&lt;/div&gt;" style="swimlane;childLayout=stackLayout;horizontal=1;startSize=50;horizontalStack=0;rounded=1;fontSize=14;fontStyle=0;strokeWidth=2;resizeParent=0;resizeLast=1;shadow=0;dashed=0;align=center;arcSize=4;whiteSpace=wrap;html=1;" vertex="1" parent="1">
          <mxGeometry x="330" y="210" width="180" height="110" as="geometry" />
        </mxCell>
        <mxCell id="HK2u9pn1FgQDqxlHmX3k-35" value="PROCES 1:&amp;nbsp;Dodavanje i&amp;nbsp;&lt;div&gt;ažuriranje statusa stola&lt;/div&gt;&lt;div&gt;&amp;nbsp;(zauzeto/slobodno).&lt;/div&gt;" style="text;html=1;align=center;verticalAlign=middle;resizable=0;points=[];autosize=1;strokeColor=none;fillColor=none;" vertex="1" parent="HK2u9pn1FgQDqxlHmX3k-1">
          <mxGeometry y="50" width="180" height="60" as="geometry" />
        </mxCell>
        <mxCell id="HK2u9pn1FgQDqxlHmX3k-16" value="" style="edgeStyle=orthogonalEdgeStyle;rounded=0;orthogonalLoop=1;jettySize=auto;html=1;" edge="1" parent="1" source="HK2u9pn1FgQDqxlHmX3k-9" target="HK2u9pn1FgQDqxlHmX3k-13">
          <mxGeometry relative="1" as="geometry" />
        </mxCell>
        <mxCell id="HK2u9pn1FgQDqxlHmX3k-9" value="&lt;div&gt;&lt;br&gt;&lt;/div&gt;&lt;div&gt;&lt;b style=&quot;font-size: 12px; text-wrap: nowrap;&quot;&gt;UPRAVLJANJE&amp;nbsp;&lt;/b&gt;&lt;div style=&quot;font-size: 12px; text-wrap: nowrap;&quot;&gt;&lt;b&gt;NARUDŽBAMA&lt;/b&gt;&lt;/div&gt;&lt;/div&gt;" style="swimlane;childLayout=stackLayout;horizontal=1;startSize=50;horizontalStack=0;rounded=1;fontSize=14;fontStyle=0;strokeWidth=2;resizeParent=0;resizeLast=1;shadow=0;dashed=0;align=center;arcSize=4;whiteSpace=wrap;html=1;" vertex="1" parent="1">
          <mxGeometry x="330" y="400" width="180" height="110" as="geometry" />
        </mxCell>
        <mxCell id="HK2u9pn1FgQDqxlHmX3k-10" value="&lt;div&gt;&lt;span style=&quot;background-color: initial;&quot;&gt;PROCES 2: Kreiranje narudžbe,&amp;nbsp;&lt;/span&gt;&lt;br&gt;&lt;/div&gt;&lt;div&gt;dodavanje napomena,&amp;nbsp;&lt;span style=&quot;background-color: initial;&quot;&gt;slanje&lt;/span&gt;&lt;/div&gt;&lt;div&gt;&lt;span style=&quot;background-color: initial;&quot;&gt;&amp;nbsp;narudžbi&amp;nbsp;&lt;/span&gt;&lt;/div&gt;" style="align=center;strokeColor=none;fillColor=none;spacingLeft=4;fontSize=12;verticalAlign=top;resizable=0;rotatable=0;part=1;html=1;" vertex="1" parent="HK2u9pn1FgQDqxlHmX3k-9">
          <mxGeometry y="50" width="180" height="60" as="geometry" />
        </mxCell>
        <mxCell id="HK2u9pn1FgQDqxlHmX3k-20" value="" style="edgeStyle=orthogonalEdgeStyle;rounded=0;orthogonalLoop=1;jettySize=auto;html=1;" edge="1" parent="1" source="HK2u9pn1FgQDqxlHmX3k-13" target="HK2u9pn1FgQDqxlHmX3k-17">
          <mxGeometry relative="1" as="geometry" />
        </mxCell>
        <mxCell id="HK2u9pn1FgQDqxlHmX3k-13" value="&lt;div&gt;&lt;br&gt;&lt;/div&gt;&lt;div&gt;&lt;b style=&quot;font-size: 12px; text-wrap: nowrap;&quot;&gt;OBRADA TRANSAKCIJE&lt;/b&gt;&lt;br&gt;&lt;/div&gt;" style="swimlane;childLayout=stackLayout;horizontal=1;startSize=50;horizontalStack=0;rounded=1;fontSize=14;fontStyle=0;strokeWidth=2;resizeParent=0;resizeLast=1;shadow=0;dashed=0;align=center;arcSize=4;whiteSpace=wrap;html=1;" vertex="1" parent="1">
          <mxGeometry x="330" y="590" width="180" height="110" as="geometry" />
        </mxCell>
        <mxCell id="HK2u9pn1FgQDqxlHmX3k-49" value="&lt;font style=&quot;font-size: 11px;&quot;&gt;PROCES 3:&amp;nbsp;Generiranje računa,&amp;nbsp;&lt;/font&gt;&lt;div style=&quot;font-size: 11px;&quot;&gt;&lt;font style=&quot;font-size: 11px;&quot;&gt;dodavanje popusta,&amp;nbsp;&lt;/font&gt;&lt;/div&gt;&lt;div style=&quot;font-size: 11px;&quot;&gt;&lt;font style=&quot;font-size: 11px;&quot;&gt;naplata putem različitih metoda&lt;/font&gt;&lt;/div&gt;&lt;div style=&quot;font-size: 11px;&quot;&gt;&lt;font style=&quot;font-size: 11px;&quot;&gt;&amp;nbsp;(gotovina, kartica).&lt;/font&gt;&lt;/div&gt;" style="text;html=1;align=center;verticalAlign=middle;resizable=0;points=[];autosize=1;strokeColor=none;fillColor=none;" vertex="1" parent="HK2u9pn1FgQDqxlHmX3k-13">
          <mxGeometry y="50" width="180" height="60" as="geometry" />
        </mxCell>
        <mxCell id="HK2u9pn1FgQDqxlHmX3k-23" value="" style="edgeStyle=orthogonalEdgeStyle;rounded=0;orthogonalLoop=1;jettySize=auto;html=1;" edge="1" parent="1" source="HK2u9pn1FgQDqxlHmX3k-17" target="HK2u9pn1FgQDqxlHmX3k-21">
          <mxGeometry relative="1" as="geometry" />
        </mxCell>
        <mxCell id="HK2u9pn1FgQDqxlHmX3k-17" value="&lt;div&gt;&lt;br&gt;&lt;/div&gt;&lt;div&gt;&lt;b style=&quot;font-size: 12px; text-wrap: nowrap;&quot;&gt;UPRAVLJANJE&amp;nbsp;&lt;/b&gt;&lt;div style=&quot;font-size: 12px; text-wrap: nowrap;&quot;&gt;&lt;b&gt;ZAPOSLENICIMA&lt;/b&gt;&lt;/div&gt;&lt;/div&gt;" style="swimlane;childLayout=stackLayout;horizontal=1;startSize=50;horizontalStack=0;rounded=1;fontSize=14;fontStyle=0;strokeWidth=2;resizeParent=0;resizeLast=1;shadow=0;dashed=0;align=center;arcSize=4;whiteSpace=wrap;html=1;" vertex="1" parent="1">
          <mxGeometry x="330" y="780" width="180" height="115" as="geometry" />
        </mxCell>
        <mxCell id="HK2u9pn1FgQDqxlHmX3k-54" value="&lt;font style=&quot;font-size: 11px;&quot;&gt;PROCES 4:&amp;nbsp;&lt;/font&gt;&lt;div&gt;&lt;font style=&quot;font-size: 11px;&quot;&gt;Dodavanje novih zaposlenika,&lt;/font&gt;&lt;div style=&quot;font-size: 11px;&quot;&gt;&lt;font style=&quot;font-size: 11px;&quot;&gt;&amp;nbsp;ažuriranje informacija,&amp;nbsp;&lt;/font&gt;&lt;/div&gt;&lt;div style=&quot;font-size: 11px;&quot;&gt;&lt;font style=&quot;font-size: 11px;&quot;&gt;praćenje radnih sati.&lt;/font&gt;&lt;/div&gt;&lt;/div&gt;" style="text;html=1;align=center;verticalAlign=middle;resizable=0;points=[];autosize=1;strokeColor=none;fillColor=none;" vertex="1" parent="HK2u9pn1FgQDqxlHmX3k-17">
          <mxGeometry y="50" width="180" height="65" as="geometry" />
        </mxCell>
        <mxCell id="HK2u9pn1FgQDqxlHmX3k-21" value="&lt;div&gt;&lt;br&gt;&lt;/div&gt;&lt;div&gt;&lt;b style=&quot;font-size: 12px; text-wrap: nowrap;&quot;&gt;PREGLED I&amp;nbsp;&lt;/b&gt;&lt;div style=&quot;font-size: 12px; text-wrap: nowrap;&quot;&gt;&lt;b&gt;IZVJEŠTAJI&lt;/b&gt;&lt;/div&gt;&lt;/div&gt;" style="swimlane;childLayout=stackLayout;horizontal=1;startSize=50;horizontalStack=0;rounded=1;fontSize=14;fontStyle=0;strokeWidth=2;resizeParent=0;resizeLast=1;shadow=0;dashed=0;align=center;arcSize=4;whiteSpace=wrap;html=1;" vertex="1" parent="1">
          <mxGeometry x="330" y="970" width="180" height="110" as="geometry" />
        </mxCell>
        <mxCell id="HK2u9pn1FgQDqxlHmX3k-22" value="&lt;font style=&quot;font-size: 11px;&quot;&gt;PROCES 5:&amp;nbsp;&lt;/font&gt;&lt;div style=&quot;font-size: 11px;&quot;&gt;&lt;font style=&quot;font-size: 11px;&quot;&gt;&amp;nbsp;Generiranje izvještaja o prodaji,&lt;/font&gt;&lt;div style=&quot;&quot;&gt;&lt;font style=&quot;font-size: 11px;&quot;&gt;&amp;nbsp;učinkovitosti zaposlenika,&amp;nbsp;&lt;/font&gt;&lt;/div&gt;&lt;div style=&quot;&quot;&gt;&lt;font style=&quot;font-size: 11px;&quot;&gt;pregled narudžbi&lt;/font&gt;&lt;/div&gt;&lt;/div&gt;" style="align=center;strokeColor=none;fillColor=none;spacingLeft=4;fontSize=12;verticalAlign=top;resizable=0;rotatable=0;part=1;html=1;" vertex="1" parent="HK2u9pn1FgQDqxlHmX3k-21">
          <mxGeometry y="50" width="180" height="60" as="geometry" />
        </mxCell>
        <mxCell id="HK2u9pn1FgQDqxlHmX3k-26" value="&lt;b&gt;ŠANK / KUHINJA&lt;/b&gt;" style="rounded=0;whiteSpace=wrap;html=1;" vertex="1" parent="1">
          <mxGeometry x="680" y="425" width="120" height="60" as="geometry" />
        </mxCell>
        <mxCell id="HK2u9pn1FgQDqxlHmX3k-28" value="&lt;b&gt;ADMINISTRATOR&lt;/b&gt;" style="rounded=0;whiteSpace=wrap;html=1;" vertex="1" parent="1">
          <mxGeometry x="680" y="805" width="120" height="60" as="geometry" />
        </mxCell>
        <mxCell id="HK2u9pn1FgQDqxlHmX3k-30" value="&lt;b&gt;&amp;nbsp;KONOBAR&amp;nbsp;&lt;/b&gt;" style="rounded=0;whiteSpace=wrap;html=1;" vertex="1" parent="1">
          <mxGeometry x="20" y="235" width="120" height="60" as="geometry" />
        </mxCell>
        <mxCell id="HK2u9pn1FgQDqxlHmX3k-32" value="" style="endArrow=classic;html=1;rounded=0;exitX=1;exitY=0.25;exitDx=0;exitDy=0;entryX=0;entryY=0.364;entryDx=0;entryDy=0;entryPerimeter=0;" edge="1" parent="1" source="HK2u9pn1FgQDqxlHmX3k-30" target="HK2u9pn1FgQDqxlHmX3k-1">
          <mxGeometry width="50" height="50" relative="1" as="geometry">
            <mxPoint x="430" y="370" as="sourcePoint" />
            <mxPoint x="480" y="320" as="targetPoint" />
          </mxGeometry>
        </mxCell>
        <mxCell id="HK2u9pn1FgQDqxlHmX3k-33" value="Odabire stol" style="edgeLabel;html=1;align=center;verticalAlign=middle;resizable=0;points=[];" vertex="1" connectable="0" parent="HK2u9pn1FgQDqxlHmX3k-32">
          <mxGeometry x="-0.2624" y="2" relative="1" as="geometry">
            <mxPoint x="20" y="-13" as="offset" />
          </mxGeometry>
        </mxCell>
        <mxCell id="HK2u9pn1FgQDqxlHmX3k-36" value="" style="endArrow=classic;html=1;rounded=0;entryX=1;entryY=0.75;entryDx=0;entryDy=0;exitX=-0.002;exitY=0.318;exitDx=0;exitDy=0;exitPerimeter=0;" edge="1" parent="1" source="HK2u9pn1FgQDqxlHmX3k-35" target="HK2u9pn1FgQDqxlHmX3k-30">
          <mxGeometry width="50" height="50" relative="1" as="geometry">
            <mxPoint x="210" y="345" as="sourcePoint" />
            <mxPoint x="260" y="295" as="targetPoint" />
          </mxGeometry>
        </mxCell>
        <mxCell id="HK2u9pn1FgQDqxlHmX3k-37" value="Ažurirani status stola" style="text;html=1;align=center;verticalAlign=middle;resizable=0;points=[];autosize=1;strokeColor=none;fillColor=none;" vertex="1" parent="1">
          <mxGeometry x="170" y="278" width="130" height="30" as="geometry" />
        </mxCell>
        <mxCell id="HK2u9pn1FgQDqxlHmX3k-40" value="Odabire artikle iz menija i&amp;nbsp;&lt;div&gt;dodaje napomene&lt;/div&gt;" style="text;html=1;align=center;verticalAlign=middle;resizable=0;points=[];autosize=1;strokeColor=none;fillColor=none;" vertex="1" parent="1">
          <mxGeometry x="140" y="403" width="160" height="40" as="geometry" />
        </mxCell>
        <mxCell id="HK2u9pn1FgQDqxlHmX3k-42" value="" style="endArrow=classic;html=1;rounded=0;exitX=1;exitY=0.5;exitDx=0;exitDy=0;entryX=0;entryY=0.5;entryDx=0;entryDy=0;" edge="1" parent="1">
          <mxGeometry width="50" height="50" relative="1" as="geometry">
            <mxPoint x="510" y="451.9999999999999" as="sourcePoint" />
            <mxPoint x="680" y="451.9999999999999" as="targetPoint" />
          </mxGeometry>
        </mxCell>
        <mxCell id="HK2u9pn1FgQDqxlHmX3k-39" value="" style="edgeStyle=elbowEdgeStyle;elbow=horizontal;endArrow=classic;html=1;curved=0;rounded=0;endSize=8;startSize=8;entryX=-0.002;entryY=0.404;entryDx=0;entryDy=0;entryPerimeter=0;exitX=0.75;exitY=1;exitDx=0;exitDy=0;" edge="1" parent="1">
          <mxGeometry width="50" height="50" relative="1" as="geometry">
            <mxPoint x="110.36000000000001" y="295" as="sourcePoint" />
            <mxPoint x="329.9999999999999" y="444.44000000000005" as="targetPoint" />
            <Array as="points">
              <mxPoint x="80" y="410" />
              <mxPoint x="110.36000000000001" y="360" />
            </Array>
          </mxGeometry>
        </mxCell>
        <mxCell id="HK2u9pn1FgQDqxlHmX3k-44" value="Poslana narudžba" style="text;html=1;align=center;verticalAlign=middle;resizable=0;points=[];autosize=1;strokeColor=none;fillColor=none;" vertex="1" parent="1">
          <mxGeometry x="530" y="425" width="120" height="30" as="geometry" />
        </mxCell>
        <mxCell id="HK2u9pn1FgQDqxlHmX3k-47" value="" style="edgeStyle=elbowEdgeStyle;elbow=horizontal;endArrow=classic;html=1;curved=0;rounded=0;endSize=8;startSize=8;exitX=0.5;exitY=1;exitDx=0;exitDy=0;entryX=1;entryY=0.25;entryDx=0;entryDy=0;" edge="1" parent="1" source="HK2u9pn1FgQDqxlHmX3k-26">
          <mxGeometry width="50" height="50" relative="1" as="geometry">
            <mxPoint x="400" y="550" as="sourcePoint" />
            <mxPoint x="510" y="655" as="targetPoint" />
            <Array as="points">
              <mxPoint x="740" y="560" />
            </Array>
          </mxGeometry>
        </mxCell>
        <mxCell id="HK2u9pn1FgQDqxlHmX3k-48" value="Narudžba je gotova i spremna za naplatu" style="text;html=1;align=center;verticalAlign=middle;resizable=0;points=[];autosize=1;strokeColor=none;fillColor=none;" vertex="1" parent="1">
          <mxGeometry x="510" y="630" width="240" height="30" as="geometry" />
        </mxCell>
        <mxCell id="HK2u9pn1FgQDqxlHmX3k-50" value="" style="edgeStyle=elbowEdgeStyle;elbow=vertical;endArrow=classic;html=1;curved=0;rounded=0;endSize=8;startSize=8;exitX=-0.006;exitY=0.326;exitDx=0;exitDy=0;exitPerimeter=0;" edge="1" parent="1" source="HK2u9pn1FgQDqxlHmX3k-49">
          <mxGeometry width="50" height="50" relative="1" as="geometry">
            <mxPoint x="60.54000000000019" y="414.02" as="sourcePoint" />
            <mxPoint x="50" y="295" as="targetPoint" />
            <Array as="points">
              <mxPoint x="190" y="660" />
            </Array>
          </mxGeometry>
        </mxCell>
        <mxCell id="HK2u9pn1FgQDqxlHmX3k-51" value="Ispisan račun i završena transakcija" style="text;html=1;align=center;verticalAlign=middle;resizable=0;points=[];autosize=1;strokeColor=none;fillColor=none;" vertex="1" parent="1">
          <mxGeometry x="80" y="630" width="210" height="30" as="geometry" />
        </mxCell>
        <mxCell id="HK2u9pn1FgQDqxlHmX3k-53" value="Unosi podatke zaposlenika" style="text;html=1;align=center;verticalAlign=middle;resizable=0;points=[];autosize=1;strokeColor=none;fillColor=none;" vertex="1" parent="1">
          <mxGeometry x="510" y="790" width="170" height="30" as="geometry" />
        </mxCell>
        <mxCell id="HK2u9pn1FgQDqxlHmX3k-55" value="" style="endArrow=classic;html=1;rounded=0;exitX=0;exitY=0.25;exitDx=0;exitDy=0;entryX=0.011;entryY=1.075;entryDx=0;entryDy=0;entryPerimeter=0;" edge="1" parent="1" source="HK2u9pn1FgQDqxlHmX3k-28" target="HK2u9pn1FgQDqxlHmX3k-53">
          <mxGeometry width="50" height="50" relative="1" as="geometry">
            <mxPoint x="510" y="840" as="sourcePoint" />
            <mxPoint x="560" y="790" as="targetPoint" />
          </mxGeometry>
        </mxCell>
        <mxCell id="HK2u9pn1FgQDqxlHmX3k-57" value="&lt;b&gt;BAZA PODATAKA&lt;/b&gt;" style="rounded=0;whiteSpace=wrap;html=1;" vertex="1" parent="1">
          <mxGeometry x="20" y="805" width="120" height="60" as="geometry" />
        </mxCell>
        <mxCell id="HK2u9pn1FgQDqxlHmX3k-58" value="" style="endArrow=classic;html=1;rounded=0;exitX=0;exitY=0.5;exitDx=0;exitDy=0;entryX=1;entryY=0.5;entryDx=0;entryDy=0;" edge="1" parent="1" source="HK2u9pn1FgQDqxlHmX3k-17" target="HK2u9pn1FgQDqxlHmX3k-57">
          <mxGeometry width="50" height="50" relative="1" as="geometry">
            <mxPoint x="320" y="710" as="sourcePoint" />
            <mxPoint x="370" y="660" as="targetPoint" />
            <Array as="points">
              <mxPoint x="330" y="835" />
            </Array>
          </mxGeometry>
        </mxCell>
        <mxCell id="HK2u9pn1FgQDqxlHmX3k-59" value="Ažurirani podaci o zaposlenicima" style="text;html=1;align=center;verticalAlign=middle;resizable=0;points=[];autosize=1;strokeColor=none;fillColor=none;" vertex="1" parent="1">
          <mxGeometry x="135" y="805" width="200" height="30" as="geometry" />
        </mxCell>
        <mxCell id="HK2u9pn1FgQDqxlHmX3k-61" value="&lt;b&gt;MENADŽER&lt;/b&gt;" style="rounded=0;whiteSpace=wrap;html=1;" vertex="1" parent="1">
          <mxGeometry x="15" y="995" width="125" height="60" as="geometry" />
        </mxCell>
        <mxCell id="HK2u9pn1FgQDqxlHmX3k-62" value="" style="endArrow=classic;html=1;rounded=0;exitX=1;exitY=0.25;exitDx=0;exitDy=0;entryX=-0.002;entryY=0.373;entryDx=0;entryDy=0;entryPerimeter=0;" edge="1" parent="1" source="HK2u9pn1FgQDqxlHmX3k-61" target="HK2u9pn1FgQDqxlHmX3k-21">
          <mxGeometry width="50" height="50" relative="1" as="geometry">
            <mxPoint x="210" y="1040" as="sourcePoint" />
            <mxPoint x="260" y="990" as="targetPoint" />
          </mxGeometry>
        </mxCell>
        <mxCell id="HK2u9pn1FgQDqxlHmX3k-63" value="&lt;font style=&quot;font-size: 11px;&quot;&gt;Odabire izvještaj ili pregled podataka&lt;/font&gt;" style="text;html=1;align=center;verticalAlign=middle;resizable=0;points=[];autosize=1;strokeColor=none;fillColor=none;" vertex="1" parent="1">
          <mxGeometry x="135" y="980" width="200" height="30" as="geometry" />
        </mxCell>
        <mxCell id="HK2u9pn1FgQDqxlHmX3k-64" value="" style="endArrow=classic;html=1;rounded=0;exitX=0.008;exitY=0.157;exitDx=0;exitDy=0;entryX=1.018;entryY=0.573;entryDx=0;entryDy=0;exitPerimeter=0;entryPerimeter=0;" edge="1" parent="1" source="HK2u9pn1FgQDqxlHmX3k-22" target="HK2u9pn1FgQDqxlHmX3k-61">
          <mxGeometry width="50" height="50" relative="1" as="geometry">
            <mxPoint x="200" y="1020" as="sourcePoint" />
            <mxPoint x="250" y="970" as="targetPoint" />
          </mxGeometry>
        </mxCell>
        <mxCell id="HK2u9pn1FgQDqxlHmX3k-65" value="&lt;font style=&quot;font-size: 11px;&quot;&gt;Izvještaj ili pregled u traženom formatu&lt;/font&gt;" style="text;html=1;align=center;verticalAlign=middle;resizable=0;points=[];autosize=1;strokeColor=none;fillColor=none;" vertex="1" parent="1">
          <mxGeometry x="130" y="1028" width="210" height="30" as="geometry" />
        </mxCell>
        <mxCell id="HK2u9pn1FgQDqxlHmX3k-67" value="" style="endArrow=classic;html=1;rounded=0;exitX=0.5;exitY=1;exitDx=0;exitDy=0;entryX=0;entryY=0;entryDx=0;entryDy=0;" edge="1" parent="1" source="HK2u9pn1FgQDqxlHmX3k-57" target="HK2u9pn1FgQDqxlHmX3k-21">
          <mxGeometry width="50" height="50" relative="1" as="geometry">
            <mxPoint x="200" y="920" as="sourcePoint" />
            <mxPoint x="250" y="870" as="targetPoint" />
          </mxGeometry>
        </mxCell>
        <mxCell id="HK2u9pn1FgQDqxlHmX3k-68" value="Dohvaćanje podataka" style="text;html=1;align=center;verticalAlign=middle;resizable=0;points=[];autosize=1;strokeColor=none;fillColor=none;" vertex="1" parent="1">
          <mxGeometry x="180" y="890" width="140" height="30" as="geometry" />
        </mxCell>
      </root>
    </mxGraphModel>
  </diagram>
</mxfile>
